PathFileType	3	(X/Y/Z)	D:\minhoCalibration\240510\subject1_KPNP\preferred\preferred07.trc
DataRate	CameraRate	NumFrames	NumMarkers	Units	OrigDataRate	OrigDataStartFrame	OrigNumFrames
200.0	200.0	21	10	mm	200.0	396	252	
Frame#	Time	Left_Ankle_Outer1			Left_Ankle_Inner1			Left_Knee_Outer1			Left_Knee_Inner1			Left_Wrist1			Right_Wrist1			Right_Knee_Inner1			Right_Knee_Outer1			Right_Ankle_Inner1			Right_Ankle_Outer1			
		X1	Y1	Z1	X2	Y2	Z2	X3	Y3	Z3	X4	Y4	Z4	X5	Y5	Z5	X6	Y6	Z6	X7	Y7	Z7	X8	Y8	Z8	X9	Y9	Z9	X10	Y10	Z10	
396	1.97	-529.69141	112.84048	-594.7533	-579.29071	117.24907	-565.6098	-457.76807	540.11768	-431.86481	-569.61334	509.27753	-438.45206	-470.63025	933.74139	-632.92822	-723.60693	961.16418	-873.82489	-732.02551	480.46573	-881.70276	-767.63721	529.99292	-981.74585	-633.96069	115.10171	-1109.6501	-708.05127	123.40227	-1189.9786
397	1.975	-526.66418	112.14274	-594.8161	-576.70673	116.3627	-566.85785	-457.97375	538.87415	-428.7251	-569.64874	508.21768	-437.32852	-467.88983	933.65741	-629.41174	-723.00793	960.67175	-867.11133	-735.92517	480.6601	-874.08099	-771.10468	530.27167	-975.15918	-634.67267	117.70889	-1106.3405	-707.63879	126.65109	-1187.3973
398	1.98	-523.83136	111.36552	-594.79407	-574.38	115.64519	-567.79431	-458.24561	537.57788	-425.99246	-569.51526	507.16718	-436.63663	-464.96671	933.80487	-625.7865	-722.52728	960.61316	-861.51532	-740.18591	481.12756	-865.90381	-775.11334	530.94336	-968.29535	-635.25781	120.93908	-1102.9446	-707.64288	130.1682	-1184.4852
399	1.985	-521.37219	110.51995	-594.789	-572.26385	114.72714	-568.55438	-458.22635	536.26953	-423.52701	-569.24854	506.06357	-436.25653	-461.83606	934.30115	-622.07001	-722.62378	961.03204	-853.53638	-745.14838	481.46167	-857.27625	-779.58099	531.79321	-960.2868	-636.29187	124.81178	-1099.0592	-707.98804	134.36496	-1181.0791
400	1.99	-519.21735	109.69241	-594.81494	-570.51813	113.82693	-569.27789	-457.99527	535.02075	-421.44058	-568.72845	504.90921	-436.34186	-458.48273	935.1012	-618.3158	-722.06287	961.68158	-846.78778	-750.48212	482.23544	-847.75525	-784.74756	532.92474	-951.34119	-637.66711	129.4951	-1094.8458	-708.80579	139.36139	-1177.208
401	1.995	-517.47723	108.74654	-594.80829	-569.17365	112.91545	-570.02875	-457.58936	533.59528	-419.92822	-567.96741	503.89694	-436.64511	-454.97885	936.19116	-614.53754	-721.56104	962.51819	-839.67407	-755.74567	483.55594	-837.23517	-790.57068	534.26801	-941.45593	-639.34552	134.61891	-1090.3263	-709.92371	145.3015	-1172.7614
402	2	-516.30286	107.7757	-594.86371	-568.11072	112.10226	-570.62067	-456.67639	532.29584	-418.65714	-567.18848	502.70401	-437.39319	-451.43762	937.58948	-610.68829	-721.13922	963.90765	-832.5722	-761.25824	485.58682	-826.20087	-797.28851	535.92438	-930.5025	-641.60126	140.81543	-1085.2375	-712.27081	151.5603	-1167.5677
403	2.005	-515.5564	106.77148	-594.87042	-567.68097	111.2049	-571.32562	-455.31757	530.97321	-417.6445	-565.82745	501.77521	-438.08481	-447.71881	939.25513	-606.97351	-720.44891	964.33679	-825.19525	-767.70068	487.0787	-813.95593	-804.67224	537.91516	-918.48242	-644.5871	147.61926	-1079.4279	-715.00513	158.89629	-1161.7395
404	2.01	-515.22723	105.79023	-594.83539	-567.40887	110.34999	-571.63306	-453.81528	529.69226	-417.36185	-564.34088	500.89966	-438.92361	-443.92807	941.20691	-603.17047	-719.25751	965.54407	-817.57471	-774.14404	489.33902	-801.25653	-812.58051	540.12933	-905.28973	-648.34589	154.90578	-1073.0254	-718.97522	166.83679	-1154.9078
405	2.015	-515.14545	104.81451	-594.83466	-567.29913	109.73309	-571.64227	-452.18588	528.44702	-417.75052	-562.45575	500.22275	-439.49631	-440.01392	943.40479	-599.47223	-718.36456	967.24744	-809.56702	-780.66614	491.68021	-787.64124	-820.85199	542.99146	-891.05432	-653.21143	162.85136	-1065.6423	-724.08307	175.10771	-1147.1721
406	2.02	-515.48755	103.71062	-594.4079	-567.22839	109.23248	-571.77875	-449.92023	527.5509	-418.1597	-560.33252	499.79932	-440.11508	-436.00134	945.85352	-595.82867	-717.32458	968.97504	-801.6828	-787.62622	495.11166	-773.08582	-829.11768	546.15289	-875.91974	-658.87518	171.18141	-1057.5157	-730.31036	183.80507	-1138.4374
407	2.025	-514.71265	103.36574	-594.8186	-566.94696	108.8345	-571.802	-447.79797	526.85858	-419.29749	-557.91919	499.85724	-440.12805	-431.76547	948.5434	-592.30914	-716.04938	970.68353	-793.90625	-793.99445	498.09937	-757.7735	-837.25006	549.77454	-859.89874	-664.75922	180.25876	-1048.9781	-736.99994	192.98642	-1128.9579
408	2.03	-514.27203	102.99676	-594.73395	-566.40186	108.79987	-571.94806	-445.05518	526.52124	-420.30887	-554.94928	500.09381	-440.71323	-427.3927	951.51208	-588.97626	-714.70502	973.13232	-785.974	-800.54407	502.164	-741.62872	-845.08362	553.79004	-843.0614	-670.6955	190.0778	-1040.0237	-743.69452	202.8851	-1119.024
409	2.035	-513.33826	102.97283	-594.68549	-565.66333	109.27773	-572.54321	-442.63046	526.42865	-421.87332	-552.07886	500.72198	-441.10858	-422.87509	954.67102	-585.86475	-714.09381	975.58148	-777.60419	-807.31763	508.95447	-721.90967	-852.42627	558.14447	-825.4082	-676.12305	200.94128	-1030.8135	-750.37036	213.66339	-1108.5708
410	2.04	-512.2334	102.98494	-594.7193	-564.49365	109.65623	-572.82214	-439.60196	526.74207	-423.29175	-548.96344	501.57166	-441.74075	-418.05017	957.97858	-583.11322	-712.90454	978.03522	-769.40454	-812.27686	513.11597	-706.67786	-859.16571	562.94006	-806.51605	-680.53436	213.1051	-1021.4786	-757.4743	225.08351	-1097.0322
411	2.045	-510.93893	103.20484	-594.81042	-562.86444	110.06106	-572.82159	-436.72388	527.18213	-425.20325	-545.69727	502.65765	-442.52069	-412.94357	961.31879	-580.745	-712.23541	981.05731	-760.53821	-816.849	520.33221	-685.55103	-865.45996	568.10126	-787.42267	-685.22797	226.24506	-1011.811	-765.04266	236.70155	-1084.3607
412	2.05	-509.38742	103.56441	-594.96698	-561.62445	110.38403	-572.82672	-433.3609	527.77026	-427.15842	-542.15887	503.8197	-443.64264	-407.70355	964.83752	-579.28381	-711.76776	984.12476	-751.29797	-819.83624	526.29022	-667.02319	-871.24908	573.4978	-767.29865	-689.53802	240.60466	-1001.9186	-772.46375	247.82755	-1070.2816
413	2.055	-507.84152	104.01688	-595.13293	-559.75305	111.48569	-574.77264	-429.64987	528.56219	-429.45752	-538.48041	505.15311	-445.13705	-401.92975	968.42828	-578.45178	-711.68793	988.53156	-740.96399	-821.32306	531.05762	-651.11243	-876.26245	579.23639	-746.64807	-693.61011	256.0264	-991.81555	-779.77875	259.43671	-1055.9249
414	2.06	-506.29962	104.62752	-595.48773	-558.06763	112.36119	-574.99652	-425.68121	529.36896	-431.99658	-534.60986	506.43015	-447.05252	-395.80966	971.91791	-578.75189	-712.01733	992.90259	-730.11176	-821.83704	537.2171	-631.58954	-880.50885	585.25085	-725.23529	-697.19135	272.27136	-981.56085	-786.11359	271.10687	-1041.2345
415	2.065	-504.82208	105.22521	-595.76727	-556.3125	113.05513	-575.00934	-421.34418	530.24176	-435.03247	-530.59479	507.85565	-449.08292	-389.47192	975.1167	-580.1452	-712.17554	997.30695	-718.87891	-821.52783	543.59778	-611.11029	-883.94299	591.41937	-703.05725	-700.13904	289.90356	-970.36102	-791.91632	283.81274	-1026.5389
416	2.07	-503.42529	105.99505	-596.3031	-555.32025	113.64877	-574.43353	-416.41034	531.30859	-438.37308	-525.64819	509.01895	-452.79224	-382.90082	977.78912	-582.7243	-712.51581	1002.1021	-707.19922	-819.79407	549.69092	-590.35291	-886.60413	597.65375	-680.07666	-702.55811	308.20682	-957.84436	-793.75452	298.96103	-1013.4761
